<svg width="20" height="30" viewBox="0 0 20 30" fill="none" xmlns="http://www.w3.org/2000/svg">
<path d="M19.3468 15.4098C19.3468 17.513 18.2999 19.4174 16.6085 20.7953C15.0773 22.0427 13.0177 22.8592 10.7269 23.0038V26.481L13.8015 28.9858C14.0854 29.2179 14.0854 29.5936 13.8015 29.8257C13.6597 29.9413 13.4732 30 13.2854 30H6.71016C6.30734 30 5.98115 29.7343 5.98115 29.4061C5.98115 29.2392 6.06576 29.0881 6.20199 28.9802L9.26861 26.4819V23.0048C6.97779 22.8613 4.91793 22.0445 3.38698 20.7962C1.69452 19.4183 0.648661 17.514 0.648661 15.4108C0.648661 14.2046 1.03419 13.03 1.48515 11.6568C2.08831 9.81944 2.81361 7.60727 2.81361 4.52708C2.81361 4.19891 3.1398 3.93318 3.54261 3.93318H7.80869V2.56094C7.80869 2.18422 7.61871 1.84131 7.31328 1.59139C7.00784 1.34255 6.58666 1.18779 6.12424 1.18779H0.729006C0.326183 1.18779 0 0.922053 0 0.593897C0 0.26573 0.326197 0 0.729006 0H6.12424C6.9892 0 7.77542 0.288065 8.34532 0.752373C8.91522 1.21666 9.26885 1.85693 9.26885 2.56181V3.93405H10.7312V2.56181C10.7312 1.85716 11.0847 1.21665 11.6547 0.752373C12.2246 0.288087 13.0105 0 13.8758 0H19.271C19.6738 0 20 0.265742 20 0.593897C20 0.922064 19.6738 1.18779 19.271 1.18779H13.8758C13.4133 1.18779 12.9924 1.34256 12.6867 1.59139C12.3813 1.84022 12.1913 2.18334 12.1913 2.56094V3.93318H16.4574C16.8602 3.93318 17.1864 4.19892 17.1864 4.52708C17.1864 7.60715 17.913 9.81844 18.5149 11.6568C18.9658 13.03 19.3513 14.2046 19.3513 15.4108L19.3468 15.4098ZM9.99774 27.5658L8.46998 28.8104H11.5252L9.9974 27.5658H9.99774ZM12.188 5.11943V11.5351C12.7062 11.633 13.2487 11.7056 13.8038 11.7531C14.868 11.8454 15.9722 11.8444 17.0354 11.7512C16.4633 10.0052 15.8144 7.92631 15.7319 5.11858H12.1869L12.188 5.11943ZM10.7289 11.1716V5.11943H9.26655V10.6922C9.62574 10.7902 9.97138 10.9 10.3 11.0232C10.4396 11.0754 10.5825 11.1248 10.7291 11.1714L10.7289 11.1716ZM6.41599 11.3907C5.32197 11.2826 4.18347 11.2713 3.08728 11.36C3.02103 11.565 2.95557 11.7655 2.89039 11.9612C2.46815 13.2496 2.10656 14.3525 2.10656 15.4087C2.10656 17.1837 2.9899 18.7907 4.41679 19.9542C5.84476 21.1176 7.81763 21.8363 9.9964 21.8363C12.1752 21.8363 14.1478 21.1167 15.576 19.9542C17.004 18.7909 17.8863 17.1837 17.8863 15.4087C17.8863 14.621 17.6848 13.8062 17.4068 12.9093C16.1755 13.0314 14.8893 13.0389 13.6524 12.9316C12.2209 12.8085 10.8478 12.5309 9.69309 12.0991C8.68149 11.7206 7.51085 11.4987 6.41363 11.3897L6.41599 11.3907ZM7.80752 10.3746V5.11967H4.26249C4.20422 7.11638 3.8586 8.7442 3.45924 10.1471C4.50272 10.0892 5.56595 10.1107 6.58654 10.2123C6.99974 10.2533 7.40811 10.3075 7.80752 10.3744V10.3746Z" fill="white"/>
</svg>
