<svg width="30" height="30" viewBox="0 0 30 30" fill="none" xmlns="http://www.w3.org/2000/svg">
<path d="M27.856 3.5707H25.7135V1.42812C25.7135 0.641137 25.0727 0 24.2854 0H21.4282C20.6413 0 20.0002 0.64085 20.0002 1.42812V3.5707H9.99939V1.42812C9.99939 0.641137 9.35857 0 8.57133 0H5.71303C4.92608 0 4.28498 0.64085 4.28498 1.42812V3.5707H2.14249C0.961117 3.5707 0 4.53209 0 5.71328V27.8574C0 29.0388 0.961347 30 2.14249 30H27.8575C29.0389 30 30 29.0386 30 27.8574V5.71328C30 4.53186 29.0387 3.57047 27.856 3.57047V3.5707ZM21.4282 1.42812H24.2854V5.71351H21.4282V1.42812ZM5.7128 1.42812H8.57001V5.71351H5.7128V1.42812ZM28.5708 27.8574C28.5708 28.2516 28.2503 28.5722 27.8561 28.5722H2.14278C1.74862 28.5722 1.42806 28.2516 1.42806 27.8574V12.143H28.571L28.5708 27.8574ZM28.5708 10.7145H1.42783V5.71323C1.42783 5.31905 1.74836 4.99848 2.14255 4.99848H4.28503V7.14244H9.99939V4.99986H19.999L19.9992 7.14244H25.7136V4.99986H27.8561C28.2502 4.99986 28.5708 5.3204 28.5708 5.71461L28.5708 10.7145Z" fill="white" />
<path d="M16.6346 15.7151H19.4919V17.1432H16.6346V15.7151Z" fill="white" />
<path d="M22.3494 15.7151H25.2066V17.1432H22.3494V15.7151Z" fill="white" />
<path d="M10.9207 19.2854H13.7779V20.7135H10.9207V19.2854Z" fill="white" />
<path d="M16.6346 19.2854H19.4919V20.7135H16.6346V19.2854Z" fill="white" />
<path d="M22.3494 19.2854H25.2066V20.7135H22.3494V19.2854Z" fill="white" />
<path d="M10.9207 22.8574H13.7779V24.2855H10.9207V22.8574Z" fill="white" />
<path d="M16.6346 22.8574H19.4919V24.2855H16.6346V22.8574Z" fill="white" />
<path d="M22.3494 22.8574H25.2066V24.2855H22.3494V22.8574Z" fill="white" />
</svg>
