<svg width="30" height="30" viewBox="0 0 30 30" fill="none" xmlns="http://www.w3.org/2000/svg">
<path d="M15.0476 1.99994C14.8283 1.99919 14.6325 2.15002 14.5595 2.37603L13.7868 4.80849L11.4293 4.86111C11.2102 4.86637 11.0181 5.02222 10.9502 5.24973C10.8825 5.47749 10.9539 5.72679 11.1284 5.87187L13.0073 7.42511L12.3244 9.8904C12.2611 10.1197 12.3375 10.3675 12.5148 10.5083C12.6924 10.6491 12.932 10.6519 13.1121 10.5153L15.0476 9.04423L16.983 10.5153H16.9828C17.1631 10.6519 17.4025 10.6491 17.5801 10.5083C17.7574 10.3675 17.834 10.1197 17.7708 9.8904L17.0878 7.42511L18.9667 5.87187C19.141 5.72679 19.2124 5.47724 19.1447 5.24973C19.0768 5.02222 18.8847 4.86637 18.6656 4.86111L16.309 4.80849L15.5342 2.37603C15.4615 2.15053 15.2664 1.99969 15.0475 1.99994H15.0476ZM15.0476 4.27781L15.4526 5.54715C15.5232 5.76939 15.713 5.92023 15.9284 5.92549L17.1618 5.9528L16.1789 6.76512C16.0069 6.90794 15.9349 7.15249 15.9979 7.37799L16.3544 8.66612L15.3413 7.89666L15.3415 7.89641C15.1646 7.76261 14.9303 7.76261 14.7534 7.89641L13.7415 8.66587L14.098 7.378C14.161 7.15224 14.0885 6.9077 13.9163 6.76512L12.9344 5.95281L14.1668 5.9255C14.3825 5.92074 14.5727 5.7699 14.6436 5.54715L15.0476 4.27781ZM5.13684 5.10539H5.13661C4.91796 5.10564 4.72333 5.25823 4.65176 5.48599L4.00231 7.54032L2.0276 7.58417V7.58392C1.80873 7.58843 1.61663 7.74528 1.54898 7.97454C1.48133 8.20355 1.55291 8.45487 1.72745 8.60019L3.30113 9.91462L2.72947 11.9976V11.9973C2.66667 12.2276 2.74309 12.4764 2.91972 12.6177C3.09657 12.7588 3.33507 12.7615 3.51444 12.6245L5.13658 11.3825L6.75873 12.6245C6.93813 12.7608 7.17616 12.7575 7.35256 12.6164C7.52872 12.4754 7.60514 12.2273 7.54257 11.9973L6.97091 9.91438L8.54459 8.6002C8.71937 8.45488 8.79094 8.20356 8.72329 7.97455C8.65565 7.74529 8.46355 7.58844 8.24467 7.58393L6.27085 7.54008L5.62045 5.48601C5.54888 5.25875 5.35494 5.10616 5.13653 5.10541L5.13684 5.10539ZM24.9478 5.1074L24.9475 5.10765C24.7291 5.10765 24.5345 5.25974 24.4627 5.487L23.8132 7.54235L21.8385 7.5862C21.6197 7.59071 21.4276 7.74756 21.3599 7.97657C21.2923 8.20583 21.3638 8.4569 21.5384 8.60222L23.1121 9.91665L22.5404 11.9996V11.9993C22.4776 12.2296 22.5538 12.4787 22.7307 12.6197C22.9075 12.761 23.146 12.7638 23.3254 12.6265L24.9475 11.3845L26.5697 12.6265C26.7491 12.7638 26.9876 12.761 27.1644 12.6197C27.3412 12.4787 27.4174 12.2296 27.3546 11.9993L26.7818 9.9164L28.3555 8.60197V8.60222C28.53 8.4569 28.6019 8.20583 28.5342 7.97657C28.4666 7.74756 28.2745 7.59071 28.0556 7.5862L26.0818 7.54235L25.4323 5.487C25.3605 5.25974 25.1659 5.10765 24.9475 5.10765L24.9478 5.1074ZM5.13684 7.39399L5.41667 8.28295L5.41643 8.2832C5.48708 8.50646 5.6764 8.65779 5.89112 8.66256L6.74679 8.68135L6.06501 9.25137V9.25112C5.8937 9.39444 5.82143 9.63974 5.88423 9.86625L6.13173 10.7673L5.42867 10.2301H5.42844C5.25251 10.0955 5.01886 10.0955 4.8427 10.2301L4.14058 10.7673L4.38809 9.86625C4.45066 9.63974 4.37862 9.39444 4.20731 9.25137L3.52642 8.68135L4.3809 8.66256H4.38113C4.59585 8.65779 4.78517 8.50645 4.85582 8.2832L5.13684 7.39399ZM24.9478 7.39599L25.2285 8.28496L25.2283 8.28546C25.2989 8.50871 25.4883 8.66005 25.703 8.66456L26.5575 8.68335L25.8766 9.25338H25.8768C25.7053 9.3962 25.6325 9.64175 25.6949 9.86825L25.9433 10.7693L25.2402 10.2311H25.2405C25.0641 10.096 24.83 10.096 24.6536 10.2311L23.9515 10.7693L24.199 9.86825C24.2615 9.642 24.1895 9.39644 24.0182 9.25338L23.3373 8.68335L24.1918 8.66456C24.4065 8.66005 24.596 8.50871 24.6667 8.28546L24.9478 7.39599ZM15.0003 12.296C13.1521 12.296 11.6408 13.9379 11.6408 15.9452C11.6408 17.1338 12.1711 18.1937 12.9873 18.8599C11.4473 19.4736 10.2109 20.7704 9.58942 22.4127C9.02215 21.2528 8.09169 20.3368 6.96313 19.8497C7.62712 19.2546 8.05197 18.3508 8.05197 17.3458C8.05197 15.5691 6.72281 14.1098 5.09345 14.1098C3.4641 14.1098 2.13889 15.5691 2.13889 17.3458C2.13889 18.3506 2.56186 19.2543 3.22472 19.8497C1.33518 20.6658 0.000461761 22.6838 0.000461761 25.0403V26.4357L0 26.4364C0.00115439 26.7451 0.231805 26.9949 0.51625 26.9954H9.63207C9.64477 26.9974 9.6577 26.9989 9.6704 26.9999H29.4807C29.6186 27.0004 29.7509 26.9413 29.8485 26.8356C29.946 26.7298 30.0005 26.586 30 26.4364V25.0443C30 22.687 28.6623 20.6673 26.7707 19.8504C27.4354 19.2553 27.8616 18.3521 27.8616 17.3466C27.8616 15.5699 26.5324 14.1151 24.903 14.1151C23.2737 14.1151 21.9485 15.5699 21.9485 17.3466C21.9485 18.3518 22.3726 19.2551 23.0364 19.8504C21.9069 20.3383 20.976 21.2555 20.4092 22.4176C19.7888 20.7732 18.5538 19.4745 17.0132 18.8604C17.828 18.1939 18.3555 17.1341 18.3555 15.9457C18.3555 13.9384 16.8481 12.2965 14.9999 12.2965L15.0003 12.296ZM15.0003 13.4185C16.2889 13.4185 17.3216 14.5438 17.3216 15.9452C17.3216 17.3468 16.2888 18.4686 15.0003 18.4686C13.7118 18.4686 12.6751 17.3466 12.6751 15.9452C12.6751 14.5435 13.712 13.4185 15.0003 13.4185ZM5.0931 15.2333C6.15794 15.2333 7.01727 16.1706 7.01727 17.3468C7.01727 18.5229 6.15771 19.4593 5.0931 19.4593C4.02826 19.4593 3.17288 18.5229 3.17288 17.3468C3.17288 16.1706 4.02832 15.2333 5.0931 15.2333ZM24.9029 15.2378C25.9677 15.2378 26.827 16.1709 26.827 17.3468C26.827 18.5229 25.9675 19.4593 24.9029 19.4593C23.838 19.4593 22.9826 18.5229 22.9826 17.3468C22.9826 16.1707 23.8381 15.2378 24.9029 15.2378ZM14.9998 19.5963C17.6743 19.5963 19.8099 21.9218 19.8099 24.8295V25.8776H10.1893V25.0413C10.1893 24.9706 10.1877 24.8997 10.1852 24.8298C10.1852 21.922 12.3247 19.5966 14.9993 19.5966L14.9998 19.5963ZM5.09251 20.5873C7.29536 20.5873 9.06941 22.4687 9.15116 24.8678V25.8731H1.03481V25.041C1.03481 22.5599 2.83681 20.587 5.09227 20.587L5.09251 20.5873ZM24.9023 20.5873C27.1577 20.5873 28.9648 22.5632 28.9648 25.0445V25.8776L20.8437 25.8773V25.0442C20.8437 22.5632 22.6469 20.587 24.9024 20.587L24.9023 20.5873Z" fill="white" />
</svg>
