<svg width="30" height="30" viewBox="0 0 30 30" fill="none" xmlns="http://www.w3.org/2000/svg">
<path d="M10.1708 22.6992H19.8287C20.1741 22.6992 20.4536 22.4181 20.4536 22.0715C20.4536 21.7249 20.1741 21.4438 19.8287 21.4438H15.6105V17.6771C15.6105 17.3305 15.331 17.0494 14.9856 17.0494C14.6401 17.0494 14.3606 17.3306 14.3606 17.6771V21.4438H10.1706C9.82509 21.4438 9.54565 21.7249 9.54565 22.0715C9.54565 22.4183 9.82532 22.6992 10.1706 22.6992H10.1708Z" fill="white" />
<path d="M18.5664 3.80888C18.5664 1.49479 17.1626 0 14.9904 0C12.8175 0 11.4138 1.49501 11.4138 3.80888C11.4138 6.29203 13.0183 8.31252 14.9904 8.31252C16.9625 8.31252 18.5664 6.29203 18.5664 3.80888ZM12.6641 3.80888C12.6641 2.21012 13.5338 1.25545 14.9908 1.25545C16.4471 1.25545 17.3169 2.21006 17.3169 3.80888C17.3169 5.5999 16.2732 7.0568 14.9908 7.0568C13.7078 7.0568 12.6641 5.5999 12.6641 3.80888Z" fill="white" />
<path d="M22.7984 14.8503V12.8434C22.7984 11.9853 22.2912 11.2113 21.4984 10.8684C17.1697 9.07348 12.7909 9.0704 8.49347 10.8722C7.70854 11.2122 7.2019 11.9857 7.2019 12.8434V14.8503C7.2019 15.5645 7.78041 16.1454 8.49146 16.1454H21.5086C22.2197 16.1454 22.7984 15.5647 22.7984 14.8503V14.8503ZM8.45145 14.8503V12.8434C8.45145 12.4876 8.66201 12.1661 8.9807 12.028C10.9698 11.1942 12.9894 10.7714 14.9829 10.7714C16.9774 10.7714 19.0094 11.1944 21.0124 12.0251C21.3376 12.1659 21.5482 12.4871 21.5482 12.8434V14.8503C21.5482 14.872 21.5305 14.8899 21.5085 14.8899L8.45145 14.8503Z" fill="white" />
<path d="M6.05753 17.4516C4.34488 17.4516 3.19434 18.6734 3.19434 20.4922C3.19434 22.4593 4.47848 24.0594 6.05753 24.0594C7.63659 24.0594 8.92073 22.4593 8.92073 20.4922C8.92073 18.6734 7.77024 17.4516 6.05753 17.4516ZM6.05753 22.8037C5.18299 22.8037 4.44449 21.7453 4.44449 20.4922C4.44449 19.3579 5.03215 18.7073 6.05753 18.7073C7.08292 18.7073 7.67058 19.3578 7.67058 20.4922C7.6708 21.7453 6.9323 22.8037 6.05753 22.8037Z" fill="white" />
<path d="M1.12845 29.9999H11.0017C11.6242 29.9999 12.1302 29.4913 12.1302 28.866V27.3441C12.1302 26.6329 11.7104 25.9916 11.0492 25.705C7.75099 24.3545 4.39695 24.3493 1.07053 25.7096C0.420086 25.9914 0 26.6332 0 27.3443V28.8662C0 29.4916 0.505933 30 1.1285 30L1.12845 29.9999ZM1.25008 27.3443C1.25008 27.1349 1.3739 26.9458 1.55351 26.8678C4.55639 25.6404 7.59308 25.6456 10.5651 26.8626C10.7568 26.9456 10.8801 27.1345 10.8801 27.344V28.7442L1.25019 28.7444L1.25008 27.3443Z" fill="white" />
<path d="M21.0635 20.4925C21.0635 22.4595 22.3476 24.0596 23.9267 24.0596C25.5057 24.0596 26.7899 22.4595 26.7899 20.4925C26.7899 18.6739 25.6394 17.4519 23.9267 17.4519C22.214 17.4519 21.0635 18.6736 21.0635 20.4925ZM23.9267 18.7073C24.9521 18.7073 25.5397 19.3578 25.5397 20.4922C25.5397 21.7453 24.8012 22.8037 23.9267 22.8037C23.0521 22.8037 22.3136 21.7453 22.3136 20.4922C22.3134 19.3579 22.9013 18.7073 23.9267 18.7073Z" fill="white" />
<path d="M18.9983 29.9999H28.8716C29.4941 29.9999 30.0001 29.4915 30.0001 28.8662V27.3443C30.0001 26.6331 29.5802 25.9916 28.9295 25.7098C28.9069 25.7 28.8831 25.6914 28.8587 25.684C25.5611 24.7083 22.2421 24.7089 19.0078 25.6853C18.9851 25.6921 18.9627 25.7004 18.9406 25.7098C18.29 25.9916 17.8701 26.6331 17.8701 27.3443V28.8662C17.8701 29.4915 18.376 29.9999 18.9986 29.9999H18.9983ZM19.1197 27.3443C19.1197 27.1448 19.232 26.9635 19.4083 26.8753C22.3838 25.985 25.4234 25.9857 28.4624 26.8759C28.6383 26.9644 28.7499 27.145 28.7499 27.3443V28.7444H19.12L19.1197 27.3443Z" fill="white" />
</svg>
