<svg width="25" height="25" viewBox="0 0 25 25" fill="none" xmlns="http://www.w3.org/2000/svg">
<path d="M15.2245 0.955311C14.4532 0.337099 13.4917 0 12.5005 0C11.5093 0 10.5478 0.337118 9.7766 0.955311L1.63717 7.41785C0.600165 8.23681 -0.00288005 9.48135 1.0343e-05 10.7968V21.8266C0.000789004 22.668 0.338146 23.4745 0.937493 24.0696C1.53705 24.6644 2.3498 24.9993 3.19758 25H6.68598C7.53396 24.9992 8.34666 24.6644 8.94621 24.0696C9.54557 23.4746 9.88275 22.668 9.8837 21.8266V18.3647C9.8837 17.4369 10.3824 16.5798 11.1918 16.1159C12.0013 15.652 12.9987 15.652 13.8081 16.1159C14.6176 16.5797 15.1163 17.4369 15.1163 18.3647V21.8266C15.1173 22.668 15.4544 23.4745 16.0538 24.0696C16.6533 24.6644 17.4661 24.9993 18.314 25H21.8024C22.6502 24.9992 23.4629 24.6644 24.0625 24.0696C24.6619 23.4746 24.9992 22.668 25 21.8266V10.7968C25.0035 9.4811 24.4004 8.23637 23.3628 7.41785L15.2245 0.955311ZM23.2558 21.8266C23.2552 22.209 23.1018 22.5755 22.8295 22.8459C22.5569 23.1162 22.1877 23.2684 21.8024 23.269H18.314C17.9286 23.2684 17.5593 23.1162 17.2868 22.8459C17.0145 22.5754 16.8611 22.2089 16.8605 21.8266V18.3647C16.8605 16.8185 16.0294 15.3899 14.6802 14.617C13.331 13.8438 11.6689 13.8438 10.3197 14.617C8.97051 15.3899 8.13948 16.8186 8.13948 18.3647V21.8266C8.13889 22.209 7.9855 22.5755 7.71316 22.8459C7.44062 23.1162 7.07134 23.2684 6.68592 23.269H3.19752C2.81228 23.2684 2.44298 23.1162 2.17049 22.8459C1.89815 22.5754 1.74475 22.2089 1.74417 21.8266V10.7968C1.74203 10.0076 2.10352 9.26067 2.72546 8.76902L10.8649 2.30648V2.30667C11.3278 1.93613 11.9046 1.73406 12.4993 1.73406C13.094 1.73406 13.6708 1.93613 14.1337 2.30667L22.2732 8.76921V8.76902C22.8951 9.26069 23.2566 10.0076 23.2544 10.7968L23.2558 21.8266Z" fill="white" />
</svg>
