<svg width="26" height="26" viewBox="0 0 26 26" fill="none" xmlns="http://www.w3.org/2000/svg">
<path d="M24.4583 5H20.2917V2.5C20.2917 1.39688 19.3574 0.5 18.2083 0.5H7.79167C6.64258 0.5 5.70833 1.39688 5.70833 2.5V5H1.54167C0.965495 5 0.5 5.44688 0.5 6V7C0.5 7.1375 0.617187 7.25 0.760417 7.25H2.72656L3.5306 23.5938C3.58268 24.6594 4.50065 25.5 5.61068 25.5H20.3893C21.5026 25.5 22.4173 24.6625 22.4694 23.5938L23.2734 7.25H25.2396C25.3828 7.25 25.5 7.1375 25.5 7V6C25.5 5.44688 25.0345 5 24.4583 5ZM17.9479 5H8.05208V2.75H17.9479V5Z" fill="#F36A6A"/>
</svg>
