<svg width="30" height="26" viewBox="0 0 30 26" fill="none" xmlns="http://www.w3.org/2000/svg">
<path d="M27.3841 2.52207H11.3164C11.2512 1.81881 10.9475 1.16851 10.4661 0.701134C9.98456 0.233768 9.36088 -0.0161621 8.71951 0.000811136H0.678406C0.498525 0.000560892 0.325918 0.0793749 0.198731 0.219484C0.0715443 0.359594 0 0.549739 0 0.747896V21.5026C0.00136268 22.6951 0.431981 23.8382 1.19739 24.6814C1.96277 25.5245 3.0005 25.9986 4.08294 25.9999H25.8585C26.9486 26.0072 27.9968 25.5378 28.7733 24.6946C29.5496 23.8515 29.9907 22.7036 30 21.5026V5.40305C29.9991 4.63919 29.7234 3.90691 29.233 3.36671C28.7427 2.82654 28.0779 2.52279 27.3848 2.52202L27.3841 2.52207ZM1.35658 1.49529H8.71974C9.05792 1.47803 9.38722 1.61839 9.62665 1.88209C9.86626 2.1458 9.9939 2.50833 9.97823 2.88115V3.26945V3.2692C9.97823 3.46736 10.0498 3.6575 10.177 3.79761C10.3041 3.93772 10.4768 4.01653 10.6566 4.01653H27.3842C27.7165 4.02129 28.0343 4.1689 28.2693 4.42786C28.5044 4.68681 28.6384 5.03683 28.6427 5.40314V6.40143H1.35645L1.35658 1.49529ZM28.6428 21.5026C28.6256 22.3042 28.3246 23.0668 27.8045 23.6278C27.2844 24.1884 26.5858 24.5034 25.8581 24.5054H4.08259C3.35988 24.5047 2.66694 24.1879 2.15592 23.625C1.64468 23.0621 1.35739 22.2987 1.35646 21.5026V7.8958H28.6427L28.6428 21.5026Z" fill="white" />
<path d="M3.31305 20.5864H8.72803C9.10278 20.5864 9.40644 20.2516 9.40644 19.839C9.40644 19.4262 9.10278 19.0917 8.72803 19.0917H3.31305C2.9383 19.0917 2.63464 19.4262 2.63464 19.839C2.63464 20.2516 2.9383 20.5864 3.31305 20.5864Z" fill="white" />
</svg>
