<svg width="24" height="32" viewBox="0 0 24 32" fill="none" xmlns="http://www.w3.org/2000/svg">
<path d="M0.63959 0.000964288C0.275719 0.0362212 -0.00175634 0.351754 8.37043e-06 0.728153V31.2728C8.37043e-06 31.6746 0.315872 32 0.70583 32H23.2942C23.6841 32 24 31.6746 24 31.2728V7.27344C24.0015 7.07712 23.9259 6.88865 23.7905 6.75067L17.4375 0.205387C17.3046 0.0727285 17.1263 -0.000574774 16.9412 0.00095116H0.705817C0.68366 -0.000317053 0.661749 -0.000317053 0.63959 0.00095116V0.000964288ZM1.41165 1.45534H16.2352V7.2735C16.2352 7.67502 16.5513 8.00069 16.9411 8.00069H22.5883V30.5456H1.41172L1.41165 1.45534ZM17.647 2.47804L21.5954 6.54599H17.647V2.47804ZM3.11019 6.18256C2.92308 6.19143 2.74681 6.27691 2.62076 6.41946C2.49446 6.56226 2.42848 6.75098 2.43734 6.94374C2.44596 7.13677 2.52892 7.31812 2.66753 7.44824C2.80613 7.57811 2.98906 7.64609 3.17641 7.63695H10.9411C11.1302 7.63974 11.3122 7.56441 11.4468 7.42769C11.5815 7.29097 11.6571 7.10454 11.6571 6.90974C11.6571 6.71494 11.5815 6.52851 11.4468 6.3918C11.3122 6.25508 11.1302 6.17975 10.9411 6.18254H3.17641C3.15425 6.18152 3.13234 6.18152 3.11018 6.18254L3.11019 6.18256ZM3.11019 9.09164C2.92308 9.10051 2.74681 9.18574 2.62076 9.32854C2.49446 9.47134 2.42848 9.66006 2.43734 9.85282C2.44596 10.0459 2.52892 10.2272 2.66753 10.3571C2.80613 10.4872 2.98906 10.5552 3.17641 10.546H8.82362C9.01245 10.5488 9.19463 10.4735 9.32905 10.3368C9.46372 10.2001 9.53954 10.0134 9.53954 9.81883C9.53954 9.62403 9.46372 9.4376 9.32905 9.30088C9.19463 9.16417 9.01245 9.08884 8.82362 9.09162H3.17641C3.15425 9.09035 3.13234 9.09035 3.11018 9.09162L3.11019 9.09164ZM3.52945 12.3641C3.13948 12.3641 2.82363 12.6898 2.82338 13.0913V21.8184C2.82363 22.2199 3.13949 22.5456 3.52945 22.5456H20.4707C20.8607 22.5456 21.1765 22.2199 21.1768 21.8184V13.0913C21.1765 12.6898 20.8607 12.3641 20.4707 12.3641H3.52945ZM4.23527 13.8185H14.4706V15.2732H4.23527V13.8185ZM15.8824 13.8185H19.7646V15.2732H15.8824V13.8185ZM4.23527 16.7276H14.4706V18.1822H4.23527V16.7276ZM15.8824 16.7276H19.7646V18.1822H15.8824V16.7276ZM4.23527 19.6367H14.4706V21.0911H4.23527V19.6367ZM15.8824 19.6367H19.7646V21.0911H15.8824V19.6367ZM12.2867 24.3639C12.0994 24.3728 11.9233 24.4583 11.797 24.6008C11.671 24.7436 11.605 24.9323 11.6136 25.1251C11.6225 25.3181 11.7052 25.4995 11.8438 25.6296C11.9824 25.7595 12.1656 25.8274 12.3529 25.8183H20.1177C20.3065 25.8211 20.4887 25.7458 20.6234 25.609C20.7578 25.4723 20.8336 25.2859 20.8336 25.0911C20.8336 24.8963 20.7578 24.7099 20.6234 24.5731C20.4887 24.4364 20.3065 24.3611 20.1177 24.3639H12.3529C12.3308 24.3629 12.3086 24.3629 12.2867 24.3639L12.2867 24.3639ZM14.4042 27.273C14.2171 27.2819 14.0411 27.3671 13.9148 27.5099C13.7885 27.6527 13.7225 27.8414 13.7314 28.0342C13.7403 28.2272 13.823 28.4085 13.9616 28.5384C14.1002 28.6685 14.2834 28.7365 14.4705 28.7274H20.1177C20.3065 28.7302 20.4887 28.6548 20.6234 28.5181C20.7578 28.3814 20.8336 28.1947 20.8336 28.0002C20.8336 27.8054 20.7578 27.6189 20.6234 27.4822C20.4887 27.3455 20.3065 27.2702 20.1177 27.273H14.4705C14.4486 27.2717 14.4264 27.2717 14.4042 27.273L14.4042 27.273Z" fill="white"/>
</svg>
