<svg width="20" height="25" viewBox="0 0 20 25" fill="none" xmlns="http://www.w3.org/2000/svg">
<path d="M9.19643 23.7657C9.19643 23.4386 9.0617 23.1247 8.8217 22.8932C8.58199 22.6619 8.25663 22.5319 7.91729 22.5319H2.55806V2.46774H7.91729C8.37439 2.46774 8.79642 2.23276 9.02513 1.85088C9.25353 1.469 9.25353 0.998722 9.02513 0.616858C8.79643 0.235266 8.37441 0 7.91729 0H0V25H7.91729C8.25662 25 8.58198 24.87 8.8217 24.6385C9.0617 24.4072 9.19643 24.0934 9.19643 23.766V23.7657Z" fill="white"/>
<path d="M19.7145 13.2646C19.7401 13.2316 19.7657 13.2029 19.7913 13.1699V13.1702C19.8145 13.1343 19.8359 13.097 19.8552 13.0592C19.8552 13.0262 19.8894 12.9975 19.9064 12.9605C19.9233 12.916 19.9376 12.8707 19.9489 12.8248C19.9489 12.7961 19.9489 12.7631 19.9745 12.7344V12.7341C19.9905 12.6583 19.9992 12.5812 20.0001 12.5037C19.9992 12.4265 19.9905 12.3493 19.9745 12.2736C19.9745 12.2406 19.9745 12.2119 19.9489 12.1832V12.1829C19.9376 12.137 19.9233 12.0917 19.9064 12.0472C19.9064 12.0142 19.8722 11.9815 19.8552 11.9485C19.8359 11.9104 19.8145 11.8733 19.7913 11.8375C19.7699 11.8045 19.7401 11.7758 19.7145 11.7428C19.689 11.7098 19.6762 11.6894 19.6548 11.6688L14.2189 6.00083C13.9081 5.67748 13.4421 5.5389 12.9965 5.63674C12.551 5.73457 12.1932 6.05448 12.0585 6.47597C11.9238 6.89716 12.0321 7.35568 12.3429 7.679L15.7877 11.2657H7.09C6.63289 11.2657 6.21087 11.501 5.98216 11.8828C5.75375 12.2644 5.75375 12.735 5.98216 13.1166C6.21086 13.4984 6.63287 13.7337 7.09 13.7337H15.7877L12.3429 17.3204C12.0321 17.6437 11.9238 18.1023 12.0585 18.5234C12.1933 18.9449 12.551 19.2648 12.9965 19.3627C13.442 19.4605 13.9081 19.3219 14.2189 18.9986L19.6548 13.3223C19.6803 13.3223 19.6973 13.2896 19.7145 13.2646V13.2646Z" fill="white"/>
</svg>
