<svg width="30" height="31" viewBox="0 0 30 31" fill="none" xmlns="http://www.w3.org/2000/svg">
<path d="M2.4716 28.5753C2.38738 28.8491 2.4181 29.1431 2.55714 29.3965C2.69644 29.65 2.93373 29.8434 3.22 29.9375C3.50629 30.0316 3.82038 30.0191 4.09716 29.9024L11.3697 26.8689C14.1955 27.582 17.188 27.4451 19.9263 26.4775C22.665 25.5096 25.0124 23.7597 26.6385 21.4735C28.2648 19.187 29.0879 16.4794 28.9926 13.7307C28.8972 10.9817 27.888 8.33035 26.107 6.14847C24.3258 3.96659 21.862 2.36392 19.0623 1.56613C16.2622 0.768077 13.2665 0.814852 10.4961 1.69956C7.72577 2.58428 5.32 4.26259 3.61682 6.49877C1.9137 8.73494 0.998443 11.4164 1 14.1664C1.00636 17.2654 2.18353 20.2613 4.32204 22.6197L2.4716 28.5753ZM3.37336 14.1667C3.37257 11.867 4.14346 9.62535 5.57648 7.76147C7.0095 5.89746 9.03174 4.50566 11.3548 3.78478C13.6782 3.06365 16.1842 3.04995 18.5161 3.7452C20.8482 4.44072 22.8875 5.80983 24.3437 7.65791C25.7998 9.50598 26.5988 11.7387 26.6266 14.0382C26.6544 16.3379 25.91 18.587 24.4989 20.4657C23.0879 22.3444 21.0821 23.7569 18.7675 24.5019C16.4528 25.2472 13.9473 25.287 11.6068 24.6159C11.3425 24.5246 11.0525 24.5246 10.7882 24.6159L5.44923 26.8464L6.69499 22.6531C6.76093 22.4614 6.77047 22.2563 6.72227 22.0601C6.67433 21.8637 6.57052 21.6832 6.42221 21.5379C4.45428 19.5292 3.36526 16.8968 3.37292 14.166L3.37336 14.1667ZM9.06828 9.92882C9.06828 9.63309 9.19328 9.3493 9.41574 9.1402C9.63819 8.9311 9.9401 8.8136 10.2547 8.8136H19.7463C20.1702 8.8136 20.5619 9.02618 20.7738 9.37121C20.9856 9.71623 20.9856 10.1414 20.7738 10.4864C20.5619 10.8314 20.1702 11.044 19.7463 11.044H10.2547C9.9401 11.044 9.63819 10.9265 9.41574 10.7174C9.19328 10.5083 9.06828 10.2245 9.06828 9.92882ZM9.06828 14.3897C9.06828 14.094 9.19328 13.8102 9.41574 13.6011C9.63819 13.392 9.9401 13.2745 10.2547 13.2745H19.7463C20.1702 13.2745 20.5619 13.4871 20.7738 13.8321C20.9856 14.1771 20.9856 14.6023 20.7738 14.9473C20.5619 15.2923 20.1702 15.5049 19.7463 15.5049H10.2547C9.9401 15.5049 9.63819 15.3874 9.41574 15.1783C9.19328 14.9692 9.06828 14.6854 9.06828 14.3897ZM9.06828 18.8506C9.06828 18.5548 9.19328 18.2711 9.41574 18.062C9.63819 17.8529 9.9401 17.7354 10.2547 17.7354H19.7463C20.1702 17.7354 20.5619 17.9479 20.7738 18.293C20.9856 18.638 20.9856 19.0632 20.7738 19.4082C20.5619 19.7532 20.1702 19.9658 19.7463 19.9658H10.2547C9.9401 19.9658 9.63819 19.8483 9.41574 19.6392C9.19328 19.4301 9.06828 19.1463 9.06828 18.8506Z" fill="white"/>
<path d="M4.03941 29.7639L4.03886 29.7642C3.79563 29.8668 3.5189 29.8778 3.26684 29.795C3.01491 29.7122 2.80878 29.5429 2.68864 29.3244C2.56894 29.1062 2.54283 28.8542 2.61487 28.6197C2.6149 28.6196 2.61494 28.6195 2.61497 28.6194L4.46528 22.6643L4.4907 22.5825L4.43316 22.519C2.31888 20.1872 1.15631 17.2269 1.15 14.1662C1.14849 11.4499 2.05248 8.80028 3.73615 6.58965C5.42001 4.37885 7.79964 2.71815 10.5418 1.84245L10.4961 1.69956L10.5418 1.84245C13.2839 0.966742 16.2495 0.920423 19.0211 1.71038L19.058 1.5811L19.0211 1.71039C21.7925 2.50008 24.2297 4.08604 25.9908 6.24332C27.7516 8.40047 28.7485 11.0205 28.8427 13.7359C28.9368 16.451 28.1239 19.1264 26.5162 21.3866C24.9088 23.6467 22.587 25.3781 19.8763 26.3361C17.166 27.2938 14.2036 27.4294 11.4064 26.7234L11.358 26.7112L11.312 26.7304L4.03941 29.7639ZM3.23532 13.6638L3.22438 13.6463L3.22292 14.1655C3.21515 16.937 4.32048 19.607 6.31507 21.6428L6.31721 21.645C6.44617 21.7714 6.53545 21.9273 6.57654 22.0957L6.5766 22.0959C6.61788 22.2639 6.60978 22.4397 6.55315 22.6043L6.55302 22.6043L6.5512 22.6104L5.30544 26.8037L5.21543 27.1066L5.50705 26.9848L10.8415 24.7562C11.0729 24.6773 11.3267 24.6778 11.5578 24.7577L11.5577 24.7579L11.5654 24.7601C13.9345 25.4394 16.4704 25.3991 18.8134 24.6447C21.1565 23.8905 23.1886 22.4602 24.6189 20.5558C26.0493 18.6512 26.8048 16.3699 26.7766 14.0364C26.7484 11.703 25.9376 9.43847 24.4616 7.56507L24.3437 7.65791L24.4616 7.56507C22.9855 5.69182 20.9196 4.30549 18.559 3.60146L18.5161 3.7452L18.559 3.60146C16.1986 2.89771 13.6621 2.91157 11.3103 3.64153C8.95878 4.37125 6.91013 5.7806 5.45756 7.67004C4.10944 9.42351 3.33867 11.5078 3.23532 13.6638ZM9.21828 9.92882C9.21828 9.67595 9.32509 9.43127 9.51847 9.24949C9.71217 9.06742 9.97698 8.9636 10.2547 8.9636H19.7463C20.1211 8.9636 20.4629 9.15158 20.646 9.4497C20.8283 9.74657 20.8283 10.1111 20.646 10.4079C20.4629 10.706 20.1211 10.894 19.7463 10.894H10.2547C9.97698 10.894 9.71217 10.7902 9.51847 10.6081C9.32509 10.4264 9.21828 10.1817 9.21828 9.92882ZM9.21828 14.3897C9.21828 14.1368 9.32509 13.8921 9.51847 13.7104C9.71217 13.5283 9.97698 13.4245 10.2547 13.4245H19.7463C20.1211 13.4245 20.4629 13.6125 20.646 13.9106C20.8283 14.2075 20.8283 14.5719 20.646 14.8688C20.4629 15.1669 20.1211 15.3549 19.7463 15.3549H10.2547C9.97698 15.3549 9.71217 15.2511 9.51847 15.069C9.32509 14.8872 9.21828 14.6426 9.21828 14.3897ZM9.21828 18.8506C9.21828 18.5977 9.32509 18.353 9.51847 18.1713C9.71217 17.9892 9.97698 17.8854 10.2547 17.8854H19.7463C20.1211 17.8854 20.4629 18.0733 20.646 18.3715C20.8283 18.6683 20.8283 19.0328 20.646 19.3297C20.4629 19.6278 20.1211 19.8158 19.7463 19.8158H10.2547C9.97698 19.8158 9.71217 19.712 9.51847 19.5299C9.32509 19.3481 9.21828 19.1034 9.21828 18.8506Z" stroke="#172066" stroke-width="0.3"/>
</svg>
