<svg width="30" height="30" viewBox="0 0 30 30" fill="none" xmlns="http://www.w3.org/2000/svg">
<path d="M12.1741 15.9141C12.195 15.9871 12.2053 16.0653 12.2053 16.1452V16.156C12.4144 17.7185 12.7497 19.435 13.2336 21.3068C13.2517 21.3562 13.2649 21.4076 13.2735 21.4589C13.5348 22.4561 13.8377 23.4966 14.1871 24.5818L14.206 24.6402C14.4484 25.3884 14.7117 26.1561 14.9985 26.9458C15.2862 26.1542 15.5504 25.3833 15.7928 24.6333L15.8071 24.5899C16.1574 23.5037 16.4614 22.4612 16.7227 21.463C16.7313 21.4107 16.7445 21.3583 16.7634 21.3079C17.2482 19.4373 17.5824 17.7206 17.7926 16.1593V16.1464C17.7926 16.0664 17.8041 15.9883 17.8239 15.9141C18.0663 14.0078 18.1202 12.3357 18.0304 10.8978C18.0201 10.8424 18.0135 10.7861 18.0135 10.7277L18.0154 10.6763C17.9056 9.19096 17.6405 7.96437 17.2722 6.99312C16.6635 5.38718 15.8113 4.58388 14.9998 4.58388C14.1875 4.58388 13.3362 5.38741 12.7275 6.99312C12.3592 7.96466 12.0942 9.19302 11.9843 10.6793L11.9862 10.7277C11.9862 10.785 11.9805 10.8415 11.9702 10.8957C11.8801 12.3346 11.9343 14.0067 12.1767 15.915L12.1741 15.9141ZM12.2119 1.64752C11.7765 1.64752 11.4231 1.27895 11.4231 0.824218C11.4231 0.369709 11.7762 0.000919123 12.2119 0.000919123H14.9681L14.9985 0L15.0289 0.000919123H17.7841C18.2195 0.000919123 18.5729 0.369486 18.5729 0.824218C18.5729 1.27873 18.2197 1.64752 17.7841 1.64752H15.7873V3.0517C16.9499 3.39568 18.0247 4.5083 18.7386 6.38813C19.0994 7.34078 19.3731 8.51291 19.5168 9.90333H24.0199C25.6647 9.90333 27.1606 10.606 28.2437 11.7365C29.3268 12.867 30 14.4284 30 16.1451C30 16.5996 29.6469 16.9684 29.2112 16.9684H19.2545C19.0586 18.2836 18.7812 19.695 18.4109 21.1991L22.9793 23.9702C23.2312 24.1223 23.3723 24.3981 23.3723 24.6807L23.3743 28.1584C23.3743 28.6129 23.0212 28.9817 22.5855 28.9817C22.4274 28.9817 22.2797 28.9332 22.1556 28.8494L16.9935 26.0348C16.6186 27.1464 16.1973 28.2988 15.7277 29.4916C15.6511 29.6874 15.5014 29.8524 15.2997 29.9383C14.8982 30.1102 14.4381 29.9107 14.2734 29.4916C13.8038 28.2988 13.3833 27.1465 13.0084 26.0348L7.78013 28.8859C7.39575 29.0955 6.92135 28.9404 6.7197 28.5389C6.65916 28.4174 6.63076 28.288 6.63076 28.1593L6.62702 24.6816C6.62702 24.3556 6.80886 24.0729 7.07194 23.9403L11.5891 21.1999C11.218 19.6958 10.9406 18.2847 10.7455 16.9692H0.788783C0.353329 16.9692 0 16.6007 0 16.1459C0 14.4292 0.673193 12.8678 1.75633 11.7374C2.83947 10.6069 4.33537 9.90418 5.98006 9.90418H10.4832C10.6271 8.5147 10.8997 7.3417 11.2614 6.38898C11.9753 4.50821 13.0499 3.39561 14.2127 3.05255V1.64837H12.2159L12.2119 1.64752ZM12.0188 22.8388L8.20326 25.1543V26.8046L12.497 24.4633C12.3266 23.911 12.1666 23.3693 12.0189 22.8386L12.0188 22.8388ZM17.5001 24.4636L21.7939 26.8048V25.1545L17.9783 22.839C17.8306 23.3698 17.6716 23.9112 17.5001 24.4638L17.5001 24.4636ZM10.3753 11.5517H5.97747C4.76752 11.5517 3.66635 12.0697 2.869 12.9017C2.24884 13.549 1.81139 14.3879 1.64761 15.3229H10.5352C10.3932 13.9492 10.345 12.6912 10.3752 11.5517H10.3753ZM19.6208 11.5517C19.6512 12.6922 19.6039 13.9493 19.4608 15.3229H28.3484C28.1846 14.3879 27.7472 13.5499 27.127 12.9017C26.3288 12.0685 25.2287 11.5517 24.0185 11.5517H19.6208Z" fill="white" />
</svg>
