<svg width="30" height="30" viewBox="0 0 30 30" fill="none" xmlns="http://www.w3.org/2000/svg">
<path d="M0.0523916 10.1751C0.854888 12.6155 1.87625 15.3941 3.29885 17.6094C8.95287 26.5831 17.0142 28.9111 17.7803 29.0988C19.4583 29.7371 20.9537 30 22.2669 30C26.6807 30 29.0881 27.1088 29.4893 26.3204C29.8542 25.4944 29.9636 23.0914 30 22.3779C30 22.0775 29.8542 21.8149 29.5987 21.6645L22.5587 18.1728C22.3032 18.0601 22.0116 18.0976 21.7925 18.2854C20.4063 19.487 19.2025 21.1766 18.6555 22.0401C12.272 19.7122 9.53621 14.756 8.80667 13.2165C10.6305 11.5644 11.2142 9.79969 11.2142 9.7248C11.2872 9.53701 11.2506 9.34922 11.1778 9.19915L8.15024 1.95259C8.04083 1.65218 7.74898 1.50211 7.45711 1.50211L4.1743 1.61473C4.02851 1.61473 3.91884 1.65218 3.80943 1.72735C-0.458587 4.50569 0.0156806 9.79995 0.0156806 10.0252C0.0156806 10.0627 0.0523206 10.1378 0.0523206 10.1753L0.0523916 10.1751ZM4.39297 3.11628L6.98297 3.00366L9.68234 9.49922C9.46352 10.0249 8.80683 11.3014 7.42083 12.3904C7.16537 12.5782 7.09259 12.9535 7.202 13.2539C7.31142 13.5543 10.0472 20.7633 18.7288 23.6544C19.057 23.7671 19.4219 23.617 19.5677 23.3166C19.5677 23.2791 20.8078 21.214 22.3399 19.7497L28.5409 22.8287C28.4679 24.0303 28.3585 25.3443 28.2127 25.6447C28.1763 25.6821 25.112 30.3755 18.2909 27.6721C18.2545 27.6721 18.2179 27.6346 18.2179 27.6346C18.1449 27.5972 10.0835 25.5321 4.57545 16.7836C3.26227 14.7184 2.27732 12.0527 1.51144 9.76227C1.43841 9.19865 1.329 5.25617 4.393 3.11612L4.39297 3.11628Z" fill="white" />
<path d="M7.20193 10.5506C7.34773 10.7007 7.53017 10.7758 7.7126 10.7758C7.89503 10.7758 8.07747 10.7007 8.22326 10.5506C8.51511 10.2502 8.51511 9.76197 8.22326 9.49928C6.69123 7.92231 5.63326 4.39289 5.59691 4.35541C5.4875 3.94238 5.08625 3.71714 4.68499 3.86722C4.28373 3.97984 4.06491 4.39286 4.21071 4.80589C4.24735 4.91851 5.3781 8.71064 7.20196 10.5506L7.20193 10.5506Z" fill="white" />
<path d="M26.5712 25.6069C26.6442 25.6447 26.7172 25.6447 26.79 25.6447C27.1182 25.6447 27.4101 25.4194 27.4831 25.119C27.5926 24.706 27.3737 24.293 26.9725 24.1803C23.8354 23.2417 22.3398 21.9274 22.3398 21.89C22.048 21.627 21.5737 21.627 21.3185 21.9651C21.063 22.2655 21.063 22.7538 21.3915 23.0165C21.4645 23.0914 23.1059 24.5557 26.5712 25.607L26.5712 25.6069Z" fill="white" />
<path d="M29.38 5.55685C29.3069 5.2939 29.0517 5.06866 28.7963 5.03121L24.5285 4.39294L22.6316 0.41303C22.5222 0.150074 22.2667 0 21.9751 0C21.6833 0 21.4281 0.150074 21.3187 0.41303L19.4218 4.39294L15.154 5.03121C14.8621 5.06866 14.6433 5.25645 14.5703 5.55685C14.4973 5.85726 14.5703 6.11995 14.7527 6.34547L17.8534 9.46187L17.1239 13.8549C17.0875 14.1553 17.197 14.418 17.4158 14.6057C17.6346 14.7558 17.9264 14.7935 18.1819 14.6809L22.0121 12.6158L25.8422 14.6809C25.9517 14.7561 26.0611 14.7561 26.1705 14.7561C26.3163 14.7561 26.4623 14.7186 26.6081 14.606C26.827 14.4559 26.9364 14.1555 26.9 13.8551L26.1705 9.46213L29.2712 6.34573C29.3801 6.15768 29.4531 5.85727 29.3801 5.55684L29.38 5.55685ZM24.7839 8.63584C24.6015 8.82363 24.5285 9.04887 24.5651 9.31155L25.1121 12.5781L22.2669 11.0386C22.0481 10.926 21.7927 10.926 21.5738 11.0386L18.7286 12.5781L19.2756 9.31155C19.312 9.08631 19.2393 8.82336 19.0568 8.63584L16.7587 6.30799L19.9687 5.8198C20.2242 5.78235 20.4064 5.63201 20.5158 5.40677L21.9384 2.44069L23.361 5.40677C23.4704 5.63201 23.6892 5.78235 23.9081 5.8198L27.1181 6.30799L24.7839 8.63584Z" fill="white" />
</svg>
