<svg width="30" height="30" viewBox="0 0 30 30" fill="none" xmlns="http://www.w3.org/2000/svg">
<path d="M28.9831 18.0948C28.9824 18.0942 28.9812 18.0935 28.9805 18.0931L26.7795 16.6011C26.8617 16.0671 26.9035 15.5305 26.9035 15C26.9035 14.4695 26.8617 13.9329 26.7795 13.3992L28.9831 11.9052C30.0064 11.206 30.3 9.90673 29.6685 8.88595L27.9694 6.11253C27.3351 5.08707 25.9903 4.67867 24.8393 5.16422L22.3653 6.21364C21.4653 5.54465 20.4764 5.00711 19.4147 4.60931L19.14 2.06873C19.0093 0.889097 17.9609 0 16.7014 0H13.2988C12.0393 0 10.9909 0.889097 10.86 2.07071L10.5858 4.60953C9.52411 5.00737 8.53522 5.54487 7.63518 6.21387L5.1591 5.16354C4.00999 4.67957 2.6652 5.08732 2.02922 6.11563L0.333386 8.88285C-0.300017 9.90673 -0.0063867 11.206 1.01952 11.9069L3.2205 13.3989C3.13825 13.9329 3.09654 14.4695 3.09654 15C3.09654 15.5305 3.13825 16.0671 3.2205 16.6008L1.01694 18.0948C-0.00638064 18.794 -0.299956 20.0933 0.331526 21.1141L2.0306 23.8875C2.66442 24.9129 4.00921 25.3213 5.16072 24.8358L7.6347 23.7864C8.53474 24.4554 9.52357 24.9929 10.5853 25.3907L10.86 27.9313C10.9907 29.1109 12.0391 30 13.2986 30H16.7012C17.9607 30 19.0091 29.1109 19.14 27.9293L19.4142 25.3905C20.4759 24.9926 21.4648 24.4551 22.3648 23.7861L24.8409 24.8365C25.9894 25.32 27.3346 24.9122 27.9708 23.8844L29.6664 21.1167C30.3 20.0933 30.0061 18.794 28.9831 18.0948L28.9831 18.0948ZM28.2138 20.3263L26.5182 23.0942C26.3167 23.4198 25.8904 23.5493 25.5296 23.3973L22.5786 22.1454C22.28 22.019 21.9309 22.0668 21.6839 22.2681C20.6995 23.0698 19.5804 23.6782 18.3572 24.0771C18.0486 24.1776 17.8302 24.4373 17.7972 24.7426L17.4705 27.7674C17.4291 28.1403 17.0984 28.4218 16.7015 28.4218L13.2989 28.4223C12.9017 28.4223 12.5713 28.1408 12.5301 27.7698L12.2029 24.7431C12.1699 24.4377 11.9515 24.178 11.6429 24.0776C10.4197 23.6784 9.30061 23.07 8.31622 22.2686C8.16063 22.1419 7.96473 22.0758 7.76649 22.0758C7.6498 22.0758 7.53217 22.099 7.42134 22.1459L4.47238 23.3967C4.10894 23.5502 3.68319 23.4198 3.48355 23.0973L1.78448 20.3234C1.58554 20.002 1.67997 19.5928 2.00147 19.3729L4.62541 17.5943C4.88997 17.4153 5.02002 17.108 4.95886 16.8066C4.83725 16.2052 4.77538 15.5976 4.77538 15C4.77538 14.4024 4.83724 13.7948 4.95909 13.1935C5.02025 12.8921 4.8902 12.585 4.62565 12.4057L2.00428 10.6291C1.68021 10.4073 1.58577 9.99817 1.78636 9.67374L3.48195 6.90584C3.68347 6.58048 4.11019 6.45095 4.47053 6.60272L7.42159 7.8546C7.71989 7.98083 8.06927 7.93324 8.31624 7.7319C9.30062 6.93027 10.4197 6.32184 11.6429 5.92291C11.9515 5.82247 12.1699 5.56275 12.203 5.25742L12.5296 2.23265C12.5711 1.8597 12.9017 1.5782 13.2986 1.5782H16.7013C17.0985 1.5782 17.4289 1.85973 17.4701 2.23067L17.7972 5.25742C17.8302 5.56274 18.0486 5.82248 18.3572 5.92291C19.5804 6.32207 20.6995 6.93049 21.6839 7.7319C21.9314 7.93324 22.28 7.98083 22.5786 7.8546L25.5275 6.6038C25.891 6.45047 26.3165 6.58067 26.5164 6.90317L28.2154 9.67704C28.4144 9.99844 28.3199 10.4077 27.9984 10.6275L25.3745 12.4061C25.1099 12.5852 24.9799 12.8925 25.041 13.1939C25.1629 13.7948 25.2248 14.4024 25.2248 15C25.2248 15.5976 25.1629 16.2052 25.041 16.8066C24.9799 17.1079 25.1099 17.415 25.3745 17.5943L27.9973 19.3718C28.3204 19.5939 28.4142 20.0025 28.2138 20.3264L28.2138 20.3263Z" fill="white" />
<path d="M15.0002 8.96643C11.4612 8.96643 8.58215 11.6729 8.58215 15C8.58215 18.3269 11.4613 21.0335 15.0002 21.0335C18.539 21.0335 21.4182 18.3268 21.4182 15C21.4182 11.6731 18.539 8.96643 15.0002 8.96643ZM15.0002 19.4556C12.387 19.4556 10.2607 17.4565 10.2607 14.9998C10.2607 12.5432 12.3869 10.5441 15.0002 10.5441C17.6134 10.5441 19.7396 12.5432 19.7396 14.9998C19.7396 17.4565 17.6134 19.4556 15.0002 19.4556Z" fill="white" />
</svg>
