<svg width="30" height="21" viewBox="0 0 30 21" fill="none" xmlns="http://www.w3.org/2000/svg">
<path d="M6.93959 0C5.08352 0 3.56657 1.65569 3.56657 3.67928C3.56657 5.20559 4.42412 6.5201 5.64555 7.07554C2.45974 7.68706 0 10.4961 0 13.9476C0.000227445 14.3476 0.292057 14.6721 0.652348 14.6721H5.56391C5.7386 14.6749 5.90669 14.5998 6.03111 14.4636C6.15553 14.3274 6.22536 14.1417 6.22536 13.9476C6.22536 13.7535 6.15553 13.5678 6.03111 13.4316C5.90669 13.2954 5.7386 13.2203 5.56391 13.2231H1.37568C1.73643 10.5231 4.04196 8.38898 6.93959 8.38898C8.36261 8.38898 9.65385 8.90018 10.6388 9.74748C10.6954 9.80509 10.7611 9.85109 10.8323 9.88343C11.2115 10.6289 11.7494 11.2634 12.4016 11.7286C8.79154 12.8501 6.12439 16.2263 6.12439 20.2755C6.12439 20.6758 6.41644 21 6.7765 21H23.2235C23.5836 21 23.8756 20.6758 23.8756 20.2755C23.8756 16.226 21.2084 12.8497 17.5984 11.7286C18.2506 11.2634 18.7885 10.6289 19.1677 9.88343C19.2389 9.85109 19.3046 9.8051 19.3612 9.74748C20.3461 8.90016 21.6374 8.38898 23.0604 8.38898C25.958 8.38898 28.2635 10.523 28.6243 13.2231H24.4361C24.2614 13.2203 24.0933 13.2954 23.9689 13.4316C23.8445 13.5678 23.7746 13.7535 23.7746 13.9476C23.7746 14.1417 23.8445 14.3274 23.9689 14.4636C24.0933 14.5998 24.2614 14.6749 24.4361 14.6721H29.3477C29.7079 14.6721 29.9998 14.3476 30 13.9476C30 10.4962 27.5403 7.68732 24.3544 7.07554C25.5759 6.52011 26.4334 5.20559 26.4334 3.67928C26.4334 1.65569 24.9165 0 23.0604 0C21.2041 0 19.6874 1.65569 19.6874 3.67928C19.6874 5.19725 20.5353 6.50341 21.7459 7.06441C21.0344 7.20087 20.3666 7.44927 19.7486 7.78888C19.7588 7.65066 19.7688 7.51091 19.7688 7.3699C19.7688 4.5056 17.6259 2.16231 14.9999 2.16231C12.3739 2.16231 10.231 4.5056 10.231 7.3699C10.231 7.51091 10.241 7.65065 10.2513 7.78888C9.63328 7.44925 8.96545 7.20086 8.25394 7.06441C9.46447 6.50342 10.3125 5.19725 10.3125 3.67928C10.3125 1.65569 8.79576 0 6.93946 0H6.93959ZM6.93959 1.42649C8.08416 1.42649 8.99813 2.43146 8.99813 3.67928C8.99813 4.92736 8.08421 5.92094 6.93959 5.92094C5.79497 5.92094 4.88128 4.92736 4.88128 3.67928C4.88128 2.43146 5.79497 1.42649 6.93959 1.42649ZM23.0605 1.42649C24.2051 1.42649 25.1188 2.43146 25.1188 3.67928C25.1188 4.92736 24.2051 5.92094 23.0605 5.92094C21.9159 5.92094 21.002 4.92736 21.002 3.67928C21.002 2.43146 21.9159 1.42649 23.0605 1.42649ZM14.9998 3.60023C16.9145 3.60023 18.4542 5.28167 18.4542 7.36994C18.4542 9.45848 16.9145 11.1399 14.9998 11.1399C13.085 11.1399 11.5453 9.45848 11.5453 7.36994C11.5453 5.28167 13.085 3.60023 14.9998 3.60023ZM14.9998 12.7701C18.9694 12.7701 22.13 15.7828 22.4997 19.551H7.49976C7.86961 15.7825 11.0302 12.7701 14.9998 12.7701Z" fill="white" />
</svg>
