<svg width="28" height="40" viewBox="0 0 28 40" fill="none" xmlns="http://www.w3.org/2000/svg">
<path d="M23.1404 8.42101H18.5457L18.5453 1.51579H20.6697C20.9168 1.51579 21.1143 1.3475 21.1143 1.13692L21.1146 0.378877C21.1146 0.168292 20.9171 0 20.67 0H7.32996C7.08285 0 6.88537 0.168292 6.88537 0.378877V1.13662C6.88537 1.3472 7.08285 1.51549 7.32996 1.51549H9.45431V8.42071H4.85957C2.68555 8.42071 0.956543 9.89453 0.956543 11.7469V31.5362C0.956543 33.2626 2.48809 34.652 4.41499 34.8623C4.01969 35.3255 3.82221 35.915 3.77259 36.5464C3.67367 38.3991 5.45236 39.9991 7.57707 39.9991C9.75109 40.0411 11.5298 38.5253 11.5298 36.673C11.5298 35.9993 11.2827 35.3678 10.8874 34.8626H17.1126C16.6184 35.4941 16.3717 36.3365 16.5199 37.1785C16.767 38.526 18.0022 39.6626 19.583 39.9152C22.0534 40.3363 24.2275 38.6943 24.2275 36.673C24.2275 35.9993 23.9803 35.3678 23.5851 34.8626C25.512 34.6943 27.0435 33.2626 27.0435 31.5365V11.7472C27.0435 9.89476 25.3141 8.42101 23.1405 8.42101H23.1404ZM11.2332 1.51579H16.7667V8.42101H11.2332V1.51579ZM9.75085 36.6735C9.75085 37.6841 8.81201 38.4838 7.62649 38.4838C6.44062 38.4838 5.50214 37.6837 5.50214 36.6735C5.50214 35.6629 6.44097 34.8631 7.62649 34.8631C8.8121 34.9048 9.75085 35.7048 9.75085 36.6735ZM20.3735 38.4838C19.1876 38.4838 18.2491 37.6837 18.2491 36.6735C18.2491 35.6629 19.188 34.8631 20.3735 34.8631C21.5594 34.8631 22.4979 35.6632 22.4979 36.6735C22.4982 37.6838 21.5101 38.4838 20.3735 38.4838ZM25.3143 31.5366C25.3143 32.5472 24.3754 33.347 23.1899 33.347H4.90907C3.7232 33.347 2.78472 32.5469 2.78472 31.5366V11.7473C2.78472 10.7367 3.72355 9.93694 4.90907 9.93694H23.1899C24.3758 9.93694 25.3143 10.737 25.3143 11.7473V31.5366Z" fill="white" />
<path d="M18.5949 25.6421C16.7173 25.6421 15.2354 26.7367 15.2354 28.0841C15.2354 29.4316 16.7669 30.5262 18.5949 30.5262C20.4229 30.5262 21.9544 29.4316 21.9544 28.0841C21.9548 26.7369 20.4725 25.6421 18.5949 25.6421V25.6421ZM18.5949 29.0525C17.7057 29.0525 16.9644 28.6313 16.9644 28.0841C16.9644 27.579 17.7054 27.1158 18.5949 27.1158C19.4841 27.1158 20.2254 27.537 20.2254 28.0841C20.2254 28.6316 19.4844 29.0525 18.5949 29.0525Z" fill="white" />
<path d="M11.9248 22.7368H7.82396C6.9348 22.7368 6.24274 23.3262 6.24274 24.0843V25.7683C6.24274 26.5261 6.93443 27.1159 7.82396 27.1159H11.9248C12.814 27.1159 13.506 26.5264 13.506 25.7683V24.0843C13.5057 23.3685 12.7647 22.7368 11.9248 22.7368ZM11.727 25.6421H7.92249V24.2526H11.727V25.6421Z" fill="white" />
<path d="M16.5198 22.8211L20.9171 21.6002C21.757 21.3476 22.2016 20.5896 21.9549 19.8738L21.2632 18.316C21.115 17.9791 20.8679 17.6845 20.4726 17.5159C20.0773 17.3476 19.682 17.3053 19.2374 17.4316L14.8401 18.6525C14.4448 18.7788 14.0991 18.9894 13.9013 19.3263C13.7038 19.6631 13.6541 20 13.8023 20.3789L14.3951 21.9789C14.5926 22.5684 15.235 22.9053 15.9267 22.9053C16.1741 22.9053 16.3223 22.863 16.5198 22.821L16.5198 22.8211ZM19.6819 18.9054L20.1761 20.2106L16.1245 21.3475L15.6303 20.0424L19.6819 18.9054Z" fill="white" />
<path d="M7.57694 18.0632C8.26863 18.4421 9.10849 18.6527 9.94842 18.6527C10.0966 18.6527 10.2944 18.6527 10.4426 18.6107C11.4804 18.5264 12.4684 18.1475 13.1602 17.5581C13.9011 16.9266 14.2471 16.1266 14.1482 15.3265C14.0493 14.5264 13.5058 13.8107 12.6167 13.3055C11.7768 12.8424 10.7887 12.6741 9.7017 12.7581C7.47844 12.9687 5.79867 14.4421 5.99612 16.0423C6.14432 16.8843 6.68781 17.5581 7.57699 18.0632H7.57694ZM9.94842 14.2739H10.2944C10.8379 14.2739 11.3322 14.4002 11.7271 14.6108C12.1717 14.8634 12.4188 15.1583 12.4681 15.4952C12.5173 15.8321 12.3199 16.2109 11.9738 16.5058C11.5785 16.8426 10.9858 17.0532 10.3434 17.1372C9.70099 17.1792 9.05888 17.0952 8.56471 16.8003C8.12012 16.5478 7.87303 16.2529 7.82374 15.916C7.67589 15.1159 8.66397 14.3582 9.94845 14.2739L9.94842 14.2739Z" fill="white" />
</svg>
